<?xml version="1.0" standalone="no"?><!DOCTYPE svg PUBLIC "-//W3C//DTD SVG 1.1//EN" "http://www.w3.org/Graphics/SVG/1.1/DTD/svg11.dtd"><svg t="1760352795158" class="icon" viewBox="0 0 1024 1024" version="1.1" xmlns="http://www.w3.org/2000/svg" p-id="10169" xmlns:xlink="http://www.w3.org/1999/xlink" width="200" height="200"><path d="M956 305.46v413.08c0 30.6-16.34 58.88-42.84 74.16L554.78 999.34a85.6 85.6 0 0 1-85.52 0L110.88 792.7a85.574 85.574 0 0 1-42.84-74.16V305.46c0-30.6 16.34-58.88 42.84-74.16L469.24 24.66a85.6 85.6 0 0 1 85.52 0l358.38 206.64a85.574 85.574 0 0 1 42.84 74.16z" fill="#5C6BC0" p-id="10170"></path><path d="M956 512V305.46c0-15.3-4.08-30.02-11.48-42.84L79.48 761.38c7.4 12.8 18.1 23.68 31.36 31.32l358.38 206.64a85.6 85.6 0 0 0 85.52 0l358.38-206.64a85.574 85.574 0 0 0 42.84-74.16V512z" fill="#283593" p-id="10171"></path><path d="M512 366c80.5 0 146 65.5 146 146s-65.5 146-146 146-146-65.5-146-146 65.5-146 146-146m0-152c-164.58 0-298 133.42-298 298s133.42 298 298 298 298-133.42 298-298-133.42-298-298-298z" fill="#FFFFFF" p-id="10172"></path><path d="M944.52 761.38c7.4-12.8 11.48-27.54 11.48-42.84V512 305.46c0-15.3-4.08-30.02-11.48-42.84L512 512l432.52 249.38z" fill="#3949AB" p-id="10173"></path></svg>