<?xml version="1.0" standalone="no"?><!DOCTYPE svg PUBLIC "-//W3C//DTD SVG 1.1//EN" "http://www.w3.org/Graphics/SVG/1.1/DTD/svg11.dtd"><svg t="1760352912237" class="icon" viewBox="0 0 1024 1024" version="1.1" xmlns="http://www.w3.org/2000/svg" p-id="18475" xmlns:xlink="http://www.w3.org/1999/xlink" width="200" height="200"><path d="M483.386004 821.695719H164.779715l29.075502-22.648286h260.455285l29.075502 22.648286z" fill="#3F3F3F" p-id="18476"></path><path d="M483.386004 776.399147H164.779715l29.075502 22.648286h260.455285l29.075502-22.648286z" fill="#7A807D" p-id="18477"></path><path d="M483.386004 776.399147H164.779715l29.075502-22.648285h260.455285l29.075502 22.648285z" fill="#3F3F3F" p-id="18478"></path><path d="M483.386004 730.796518H164.779715l29.075502 22.954344h260.455285l29.075502-22.954344zM483.386004 685.499947H164.779715l29.075502 22.648285h260.455285l29.075502-22.648285z" fill="#7A807D" p-id="18479"></path><path d="M483.386004 730.796518H164.779715l29.075502-22.648286h260.455285l29.075502 22.648286z" fill="#3F3F3F" p-id="18480"></path><path d="M150.701051 623.064132h339.418227v62.435815H150.701051z" fill="#F7A53F" p-id="18481"></path><path d="M150.701051 821.695719h339.418227v31.217907H150.701051z" fill="#FFFFFF" p-id="18482"></path><path d="M607.951575 339.654504a74.984189 74.984189 0 0 1-23.872517 103.447575 75.290247 75.290247 0 0 1-103.753633-23.872518L293.324039 120.823095A75.290247 75.290247 0 0 1 317.196557 17.069462a75.290247 75.290247 0 0 1 103.753633 23.872517zM441.762128 517.474152v105.58998H198.752144v-105.58998a122.423166 122.423166 0 1 1 244.846331 0z" fill="#FFC200" p-id="18483"></path><path d="M627.233224 377.605685a103.141517 103.141517 0 0 1-52.948019 82.635637l-165.88339 118.750471-2.448463 1.836347a112.93537 112.93537 0 1 1-112.017197-194.346775l195.571007-84.471985a132.523077 132.523077 0 0 1 48.357151-12.854432A89.062853 89.062853 0 0 1 627.233224 377.605685z" fill="#FFE610" p-id="18484"></path><path d="M401.056425 493.601635a71.005436 71.005436 0 1 1-71.005436-71.311494 71.005436 71.005436 0 0 1 71.005436 71.311494z" fill="#FFFFFF" p-id="18485"></path><path d="M375.34756 493.601635a45.296571 45.296571 0 1 1-45.296571-45.60263 45.296571 45.296571 0 0 1 45.296571 45.60263z" fill="#48B8BF" p-id="18486"></path><path d="M592.342622 376.381453a49.88744 49.88744 0 1 1-49.581382-49.88744 49.88744 49.88744 0 0 1 49.581382 49.88744z" fill="#FFFFFF" p-id="18487"></path><path d="M574.285205 376.381453a30.605791 30.605791 0 1 1-30.605792-30.605791 30.605791 30.605791 0 0 1 30.605792 30.605791z" fill="#48B8BF" p-id="18488"></path><path d="M731.048068 230.789704l165.975207-62.099151 18.883774 50.46895-165.975207 62.068545z" fill="#FFE610" p-id="18489"></path><path d="M734.047436 202.785404l145.836596-54.294674 9.426584 25.31099-145.867202 54.294674z" fill="#F7A53F" p-id="18490"></path><path d="M808.419509 259.161272l23.872517 63.353988 31.523966 35.808776-19.893765 18.057417-48.051092-38.257239-27.851271-63.660046 40.399645-15.302896zM854.940312 242.022029l23.56646 63.04793-0.306058 47.745035 26.627038 0.612116 11.324143-60.293409-20.811938-66.414568-40.399645 15.302896zM716.173654 94.379691l102.345766-38.257239 37.216643 99.468822-102.345767 38.257239z" fill="#7A807D" p-id="18491"></path><path d="M841.473764 83.790087a66.108509 66.108509 0 0 1-65.802452 66.10851l-407.669142 15.608953a67.944857 67.944857 0 0 1-11.324142 0 82.635637 82.635637 0 0 1 0-165.271273 67.944857 67.944857 0 0 1 11.324142 0l407.669142 17.445301A66.108509 66.108509 0 0 1 841.473764 83.790087z" fill="#FFE610" p-id="18492"></path><path d="M402.892773 83.790087a46.520803 46.520803 0 1 1-46.520803-46.214745A46.520803 46.520803 0 0 1 402.892773 83.790087z" fill="#FFFFFF" p-id="18493"></path><path d="M386.059587 83.790087a30.605791 30.605791 0 1 1-30.605791-30.605791 30.605791 30.605791 0 0 1 30.605791 30.605791z" fill="#48B8BF" p-id="18494"></path><path d="M810.867972 83.790087a38.257239 38.257239 0 1 1-39.787528-38.257239A38.257239 38.257239 0 0 1 810.867972 83.790087z" fill="#FFFFFF" p-id="18495"></path><path d="M795.565077 83.790087a24.484633 24.484633 0 1 1-24.484633-24.484633 24.484633 24.484633 0 0 1 24.484633 24.484633z" fill="#48B8BF" p-id="18496"></path><path d="M106.93477 852.913626h639.66104v171.086374H106.93477z" fill="#FFE610" p-id="18497"></path><path d="M383.305066 709.678522h337.275822v207.201208H383.305066z" fill="#4D4D4D" p-id="18498"></path><path d="M407.177584 732.02075h291.061076v161.904636H407.177584z" fill="#FFFFFF" p-id="18499"></path><path d="M429.825869 755.893267h159.150116v16.22107h-159.150116zM429.825869 784.356653h131.604903v16.22107h-131.604903zM429.825869 812.820039h199.855818v16.22107h-199.855818zM429.825869 841.283425h146.601741v16.22107h-146.601741z" fill="#92D5D2" p-id="18500"></path><path d="M507.564579 732.326808l-31.830023 161.904636H407.177584v-161.904636h100.386995z" fill="#F5F5F5" opacity=".5" p-id="18501"></path><path d="M474.816383 916.87973h155.783478v31.830023h-155.783478z" fill="#7A807D" p-id="18502"></path><path d="M106.93477 977.173139h639.66104v46.826861H106.93477z" fill="#F7A53F" p-id="18503"></path><path d="M252.006221 899.740487h66.414567v48.969266H252.006221z" fill="#7A807D" p-id="18504"></path><path d="M319.64502 817.716966l-3.672695 11.324143-21.730112 70.699378h-21.730112l23.872518-76.820537 3.366637-11.324143 19.893764 6.121159z" fill="#999999" p-id="18505"></path><path d="M341.069074 809.147344A28.463386 28.463386 0 1 1 321.17531 773.950684a28.463386 28.463386 0 0 1 19.893764 35.19666z" fill="#48B8BF" p-id="18506"></path><path d="M322.705599 793.538391a13.16049 13.16049 0 1 1-26.014923 0 13.16049 13.16049 0 0 1 26.014923 0z" fill="#FFFFFF" p-id="18507"></path><path d="M165.085773 899.740487h66.414568v49.275324H165.085773z" fill="#7A807D" p-id="18508"></path><path d="M163.861542 817.716966l3.366637 11.324143 22.03617 70.699378h21.730111l-23.872517-76.820537-3.672695-11.324143-19.587706 6.121159z" fill="#999999" p-id="18509"></path><path d="M142.437488 809.147344a28.157328 28.157328 0 1 0 18.669532-35.19666 28.157328 28.157328 0 0 0-18.669532 35.19666z" fill="#F7A53F" p-id="18510"></path><path d="M160.800963 793.538391a13.16049 13.16049 0 1 0 12.854432-12.854433 12.854432 12.854432 0 0 0-12.854432 12.854433z" fill="#FFFFFF" p-id="18511"></path></svg>