<?xml version="1.0" standalone="no"?><!DOCTYPE svg PUBLIC "-//W3C//DTD SVG 1.1//EN" "http://www.w3.org/Graphics/SVG/1.1/DTD/svg11.dtd"><svg t="1760354193451" class="icon" viewBox="0 0 1024 1024" version="1.1" xmlns="http://www.w3.org/2000/svg" p-id="5882" xmlns:xlink="http://www.w3.org/1999/xlink" width="200" height="200"><path d="M1024 177.152l-83.456-4.608s-31.744-113.152-176.64-123.392-240.128-3.584-240.128-3.584 107.52 70.144 64.512 194.56C556.032 307.2 505.344 362.496 451.584 425.472l-357.376 416.256c332.8-5.12 528.896-7.68 588.288-7.68 166.912 0 308.224-147.968 302.592-312.32-4.096-113.152-39.424-138.752-51.2-188.416-12.288-49.152 11.776-128.512 90.112-156.16z" fill="#31CC79" p-id="5883"></path><path d="M450.048 427.008C274.944 628.224 0 949.248 0 949.248c494.592 132.608 722.432-188.928 758.272-300.544 47.616-148.992-19.968-222.208-57.856-245.76-130.048-80.384-226.304-4.096-250.368 24.064z" fill="#93E65C" p-id="5884"></path><path d="M452.096 421.888c27.648-29.696 121.856-99.84 247.808-20.992 38.4 24.064 105.984 96.768 57.856 246.784-13.824 43.52-56.832 118.784-133.12 186.88-78.848 0.512-256.512 3.072-532.48 7.168l340.992-397.824c5.632-6.656 11.776-13.824 17.408-20.48l1.536-1.536z" fill="#60DB69" p-id="5885"></path></svg>